<svg xmlns="http://www.w3.org/2000/svg" viewBox="0 0 410 404">
  <defs>
    <linearGradient id="a" x1="6.424" x2="212.545" y1="32.013" y2="268.556" gradientUnits="userSpaceOnUse">
      <stop stop-color="#41d1ff" />
      <stop offset="1" stop-color="#bd34fe" />
    </linearGradient>
    <linearGradient id="b" x1="146.381" x2="231.074" y1="-74.077" y2="157.086" gradientUnits="userSpaceOnUse">
      <stop stop-color="#ffea83" />
      <stop offset=".083" stop-color="#ffdd35" />
      <stop offset="1" stop-color="#ffa800" />
    </linearGradient>
  </defs>
  <path fill="url(#a)" d="M399.641 59.525 215.211 388.273c-6.885 12.337-24.467 12.346-31.365.017L9.074 59.531c-7.365-13.095 3.483-28.633 18.394-26.625l176.405 24.352a24 24 0 0 0 6.756-.025l170.646-24.32c14.893-2.123 25.778 13.356 18.45 26.64Z" />
  <path fill="url(#b)" d="M292.438.006 156.638 27.886a12 12 0 0 0-9.413 13.673l32.651 184.747a12 12 0 0 0 13.178 9.674l68.773-9.718c14.447-2.041 26.281 11.614 21.517 25.539l-20.47 59.208c-4.486 12.973 7.756 25.363 20.49 20.916l37.59-12.834a24 24 0 0 0 15.364-15.852l58.492-200.56c4.225-14.495-8.871-28.077-23.657-24.85l-74.48 16.675c-14.787 3.229-27.498-10.398-23.186-24.83l22.37-74.133C299.894 9.936 297.03-.996 292.438.006Z" />
</svg>
